<svg class="wd13" xmlns="http://www.w3.org/2000/svg" viewBox="0 0 450 240">
  <link xmlns="http://www.w3.org/1999/xhtml" rel="stylesheet" href="/css/style.css" type="text/css" />
  <path class="a"
    d="M173.79,2.14,148.73,237.86H97.93l-15.39-130L68,237.86H24.24L0,2.14H38.56L49.34,111,64.15,2.14H112.5L124.18,111,138.64,2.14Z" />
  <path class="a"
    d="M178.42,237.86V2.14H232a47.23,47.23,0,0,1,31.1,11.42Q276.75,25,276.76,48.66V191.34q0,22-12.78,34.28t-31.75,12.24Zm55.16-42.75V44.73q0-12.34-12.26-12.35V207.62q12.26,0,12.26-12.51Z" />
  <path class="a"
    d="M344.17,237.86h-42.9V65.1H284.93V30.74q9.33,0,15.77-9.7t6.43-18.9h37Z" />
  <path class="a"
    d="M352.62,139.07H392V195q0,8.72,7.76,8.71t7.77-8.71V140.38q0-9.36-3.89-12.74t-14.5-3.37V97.64q18.39,0,18.39-13.8V42.08q0-7.06-7.77-7.07-8,0-8,7.07v43.4h-38V41.75Q353.72,0,401.58,0,420.77,0,435,10t14.28,31.72V74.11q0,28.27-22.2,38Q450,120.17,450,155.84v35Q450,240,401.65,240q-49,0-49-44.71Z" />
</svg>